<?xml version="1.0" encoding="UTF-8" standalone="no"?>
<svg
   width="100%"
   height="100%"
   viewBox="0 0 781 834"
   version="1.1"
   style="fill-rule:evenodd;clip-rule:evenodd;stroke-linejoin:round;stroke-miterlimit:2;"
   id="svg31"
   sodipodi:docname="ant-wifi.svg"
   inkscape:version="1.3 (0e150ed6c4, 2023-07-21)"
   xmlns:inkscape="http://www.inkscape.org/namespaces/inkscape"
   xmlns:sodipodi="http://sodipodi.sourceforge.net/DTD/sodipodi-0.dtd"
   xmlns="http://www.w3.org/2000/svg"
   xmlns:svg="http://www.w3.org/2000/svg">
  <defs
     id="defs31" />
  <sodipodi:namedview
     id="namedview31"
     pagecolor="#ffffff"
     bordercolor="#999999"
     borderopacity="1"
     inkscape:showpageshadow="2"
     inkscape:pageopacity="0"
     inkscape:pagecheckerboard="0"
     inkscape:deskcolor="#d1d1d1"
     inkscape:zoom="0.97482014"
     inkscape:cx="390.32841"
     inkscape:cy="417"
     inkscape:window-width="1920"
     inkscape:window-height="1009"
     inkscape:window-x="-8"
     inkscape:window-y="-8"
     inkscape:window-maximized="1"
     inkscape:current-layer="g31" />
  <g
     transform="matrix(1,0,0,1,-293.517,-121.823)"
     id="g31">
    <g
       transform="matrix(4.16667,0,0,4.16667,0,0)"
       id="g4">
      <g
         transform="matrix(1,0,0,1,141.822,161.476)"
         id="g3">
        <path
           d="M0,-59.402C2.217,-61.169 10.159,-67.052 21.878,-66.979C33.448,-66.907 41.247,-61.075 43.473,-59.281C39.007,-61.099 31.387,-63.551 21.665,-63.564C12.03,-63.577 4.461,-61.189 0,-59.402M37.14,-29.702C37.14,-39.421 41.223,-48.182 47.762,-54.379C48.834,-55.394 48.723,-57.113 47.636,-58.113C40.769,-64.428 31.626,-68.303 21.56,-68.303C11.494,-68.303 2.352,-64.428 -4.515,-58.113C-5.602,-57.113 -5.713,-55.394 -4.642,-54.379C1.897,-48.182 5.981,-39.421 5.981,-29.702C5.981,-19.981 1.897,-11.22 -4.642,-5.024C-5.713,-4.008 -5.602,-2.289 -4.515,-1.29C2.352,5.026 11.494,8.901 21.56,8.901C31.626,8.901 40.769,5.026 47.636,-1.29C48.723,-2.289 48.834,-4.008 47.762,-5.024C41.223,-11.22 37.14,-19.981 37.14,-29.702"
           style="fill:rgb(190,210,69);fill-rule:nonzero;"
           id="path2" />
      </g>
    </g>
    <g
       transform="matrix(4.16667,0,0,4.16667,0,0)"
       id="g6">
      <g
         transform="matrix(1,0,0,1,136.991,114.381)"
         id="g5">
        <path
           d="M0,34.788C-0.576,34.582 3.068,27.576 3.087,16.432C3.101,8.285 1.168,2.912 1.703,2.771C2.292,2.617 5.613,8.867 5.854,16.432C6.183,26.748 0.64,35.017 0,34.788M-2.715,-7.157C-3.791,-8.188 -5.536,-8.191 -6.482,-7.039C-11.946,-0.384 -15.247,8.111 -15.247,17.393C-15.247,26.677 -11.946,35.173 -6.482,41.827C-5.536,42.979 -3.791,42.976 -2.715,41.945C3.748,35.757 7.776,27.049 7.776,17.393C7.776,7.74 3.748,-0.968 -2.715,-7.157"
           style="fill:rgb(30,30,28);fill-rule:nonzero;"
           id="path4" />
      </g>
    </g>
    <g
       transform="matrix(4.16667,0,0,4.16667,0,0)"
       id="g8">
      <g
         transform="matrix(1,0,0,1,189.42,114.305)"
         id="g7">
        <path
           d="M0,34.94C-0.642,35.169 -6.199,26.9 -5.87,16.585C-5.628,9.019 -2.297,2.769 -1.708,2.924C-1.171,3.064 -3.109,8.437 -3.095,16.585C-3.076,27.728 0.578,34.734 0,34.94M6.835,-6.963C5.89,-8.115 4.145,-8.112 3.068,-7.081C-3.394,-0.893 -7.422,7.815 -7.422,17.469C-7.422,27.125 -3.394,35.833 3.068,42.021C4.145,43.051 5.89,43.055 6.835,41.903C12.3,35.249 15.601,26.752 15.601,17.469C15.601,8.187 12.3,-0.309 6.835,-6.963"
           style="fill:rgb(30,30,28);fill-rule:nonzero;"
           id="path6" />
      </g>
    </g>
    <g
       transform="matrix(4.16667,0,0,4.16667,0,0)"
       id="g10">
      <g
         transform="matrix(-0.999503,0.031514,0.031514,0.999503,175.392,156.16)"
         id="g9">
        <path
           d="M-10.507,-47.268C-11.149,-46.858 -2.283,-38.009 -1.894,-24.691C-1.474,-10.326 -11.195,-0.282 -10.507,0.139C-9.774,0.59 2.429,-10.102 2.066,-24.388C1.722,-37.976 -9.809,-47.715 -10.507,-47.268"
           style="fill:rgb(174,196,47);fill-rule:nonzero;"
           id="path8" />
      </g>
    </g>
    <g
       transform="matrix(4.16667,0,0,4.16667,0,0)"
       id="g12">
      <g
         transform="matrix(-0.999503,-0.031514,-0.031514,0.999503,151.411,156.16)"
         id="g11">
        <path
           d="M10.507,-47.268C11.149,-46.858 2.283,-38.009 1.894,-24.691C1.474,-10.326 11.195,-0.282 10.507,0.139C9.774,0.59 -2.429,-10.102 -2.066,-24.388C-1.722,-37.976 9.809,-47.715 10.507,-47.268"
           style="fill:rgb(174,196,47);fill-rule:nonzero;"
           id="path10" />
      </g>
    </g>
    <g
       transform="matrix(4.16667,0,0,4.16667,0,0)"
       id="g14">
      <g
         transform="matrix(-0.999697,-0.0246245,-0.0246245,0.999697,200.875,153.087)"
         id="g13">
        <path
           d="M7.344,-42.338C7.794,-41.977 1.595,-33.967 1.323,-22.052C1.03,-9.2 7.825,-0.326 7.344,0.059C6.832,0.47 -1.697,-8.957 -1.445,-21.738C-1.204,-33.894 6.856,-42.729 7.344,-42.338"
           style="fill:rgb(61,61,59);fill-rule:nonzero;"
           id="path12" />
      </g>
    </g>
    <g
       transform="matrix(4.16667,0,0,4.16667,0,0)"
       id="g16">
      <g
         transform="matrix(-0.999697,0.0246245,0.0246245,0.999697,125.891,153.087)"
         id="g15">
        <path
           d="M-7.342,-42.338C-7.792,-41.977 -1.593,-33.967 -1.322,-22.052C-1.028,-9.2 -7.824,-0.326 -7.342,0.059C-6.83,0.47 1.699,-8.957 1.447,-21.738C1.205,-33.894 -6.855,-42.729 -7.342,-42.338"
           style="fill:rgb(61,61,59);fill-rule:nonzero;"
           id="path14" />
      </g>
    </g>
    <g
       transform="matrix(4.16667,0,0,4.16667,0,0)"
       id="g18">
      <g
         transform="matrix(1,0,0,1,201.176,100.658)"
         id="g17">
        <path
           d="M0,-30.741C-1.371,-30.741 -2.483,-29.629 -2.483,-28.258C-2.483,-27.727 -2.313,-27.238 -2.029,-26.834L-12.575,-12.491L-13.207,-12.955L-18.345,-5.961C-21.257,-7.715 -28.486,-11.535 -38.41,-11.367C-47.615,-11.212 -54.311,-7.708 -57.231,-5.945L-62.381,-12.955L-63.013,-12.491L-73.558,-26.834C-73.274,-27.238 -73.104,-27.727 -73.104,-28.258C-73.104,-29.629 -74.216,-30.741 -75.587,-30.741C-76.959,-30.741 -78.07,-29.629 -78.07,-28.258C-78.07,-26.887 -76.959,-25.775 -75.587,-25.775C-75.325,-25.775 -75.076,-25.827 -74.838,-25.903L-64.288,-11.555L-64.933,-11.082L-59.808,-4.107C-61.162,-2.87 -62.516,-1.634 -63.869,-0.397C-60.623,-2.696 -51.454,-8.546 -38.355,-8.68C-24.286,-8.825 -14.493,-2.285 -11.364,0C-12.827,-1.381 -14.29,-2.762 -15.753,-4.143L-10.655,-11.082L-11.299,-11.555L-0.749,-25.903C-0.511,-25.827 -0.263,-25.775 0,-25.775C1.371,-25.775 2.483,-26.887 2.483,-28.258C2.483,-29.629 1.371,-30.741 0,-30.741"
           style="fill:rgb(30,30,28);fill-rule:nonzero;"
           id="path16" />
      </g>
    </g>
    <g
       transform="matrix(4.16667,0,0,4.16667,0,0)"
       id="g20">
      <g
         transform="matrix(1,0,0,1,200.97,78.1773)"
         id="g19">
        <path
           d="M0,-11.407C-3.145,-11.407 -5.704,-8.848 -5.704,-5.704C-5.704,-2.559 -3.145,0 0,0C3.145,0 5.704,-2.559 5.704,-5.704C5.704,-8.848 3.145,-11.407 0,-11.407M0,1.292C-3.857,1.292 -6.996,-1.846 -6.996,-5.704C-6.996,-9.561 -3.857,-12.699 0,-12.699C3.858,-12.699 6.996,-9.561 6.996,-5.704C6.996,-1.846 3.858,1.292 0,1.292"
           style="fill:rgb(190,210,69);fill-rule:nonzero;"
           id="path18" />
      </g>
    </g>
    <g
       transform="matrix(4.16667,0,0,4.16667,0,0)"
       id="g22">
      <g
         transform="matrix(1,0,0,1,218.347,72.4734)"
         id="g21">
        <path
           d="M0,0C0,-9.582 -7.795,-17.376 -17.377,-17.376C-26.958,-17.376 -34.754,-9.582 -34.754,0C-34.754,9.582 -26.958,17.377 -17.377,17.377C-7.795,17.377 0,9.582 0,0M-36.046,0C-36.046,-10.294 -27.671,-18.669 -17.377,-18.669C-7.082,-18.669 1.293,-10.294 1.293,0C1.293,10.294 -7.082,18.669 -17.377,18.669C-27.671,18.669 -36.046,10.294 -36.046,0"
           style="fill:rgb(190,210,69);fill-rule:nonzero;"
           id="path20" />
      </g>
    </g>
    <g
       transform="matrix(4.16667,0,0,4.16667,0,0)"
       id="g24">
      <g
         transform="matrix(1,0,0,1,209.09,64.355)"
         id="g23">
        <path
           d="M0,16.237C4.477,11.76 4.477,4.476 0,-0C-4.477,-4.477 -11.761,-4.477 -16.237,-0C-20.714,4.476 -20.715,11.76 -16.238,16.237C-11.761,20.714 -4.477,20.714 0,16.237M-17.228,-0.991C-12.205,-6.013 -4.033,-6.013 0.99,-0.991C6.013,4.032 6.013,12.204 0.99,17.227C-4.033,22.25 -12.206,22.25 -17.228,17.227C-22.25,12.205 -22.25,4.032 -17.228,-0.991"
           style="fill:rgb(190,210,69);fill-rule:nonzero;"
           id="path22" />
      </g>
    </g>
    <g
       transform="matrix(4.16667,0,0,4.16667,0,0)"
       id="g26">
      <g
         transform="matrix(1,0,0,1,166.769,154.549)"
         id="g25">
        <path
           d="M0,28.855C-1.231,32.48 -2.171,36.198 -2.823,39.983L-3.95,39.983C-4.602,36.198 -5.542,32.48 -6.773,28.855C-7.693,26.145 -8.821,23.524 -10.068,20.966C-7.729,21.566 -5.252,21.931 -2.642,21.888C-0.601,21.854 1.352,21.576 3.215,21.141C2.002,23.644 0.9,26.207 0,28.855M54.958,-21.387C52.84,-21.387 51.125,-19.671 51.125,-17.554C51.125,-16.735 51.387,-15.979 51.825,-15.356L35.545,6.785L34.57,6.069L23.2,21.546L24.167,22.258L21.145,26.37L11.566,17.88C13.488,17.052 16.3,15.554 19.013,12.883C20.787,11.138 22.021,9.38 22.864,7.953C20.557,9.966 11.089,17.756 -3.268,17.75C-17.837,17.742 -27.388,9.709 -29.643,7.705C-28.428,9.525 -26.542,11.909 -23.757,14.164C-21.735,15.8 -19.776,16.935 -18.158,17.719C-21.411,20.603 -24.664,23.487 -27.917,26.37L-30.94,22.258L-29.973,21.546L-41.343,6.069L-42.318,6.785L-58.598,-15.356C-58.16,-15.979 -57.897,-16.735 -57.897,-17.554C-57.897,-19.671 -59.613,-21.387 -61.73,-21.387C-63.847,-21.387 -65.563,-19.671 -65.563,-17.554C-65.563,-15.438 -63.847,-13.721 -61.73,-13.721C-61.325,-13.721 -60.941,-13.802 -60.574,-13.918L-44.287,8.23L-45.282,8.96L-33.909,24.441L-32.908,23.705L-28.299,29.972L-15.822,18.913C-15.584,19.024 -15.333,19.121 -15.09,19.227C-13.12,22.73 -11.424,26.407 -10.121,30.246C-9.042,33.421 -8.212,36.675 -7.604,39.983L-7.687,39.983L-7.687,45.36L-8.612,45.36L-8.612,50.242L2.143,50.242L2.143,45.36L0.915,45.36L0.915,39.983L0.832,39.983C1.439,36.675 2.27,33.421 3.348,30.246C4.613,26.521 6.249,22.951 8.145,19.543C8.51,19.39 8.862,19.225 9.217,19.062L21.526,29.972L26.135,23.705L27.137,24.441L38.509,8.96L37.514,8.23L53.801,-13.918C54.168,-13.802 54.551,-13.721 54.958,-13.721C57.075,-13.721 58.791,-15.438 58.791,-17.554C58.791,-19.671 57.075,-21.387 54.958,-21.387"
           style="fill:rgb(30,30,28);fill-rule:nonzero;"
           id="path24" />
      </g>
    </g>
    <g
       transform="matrix(4.16667,0,0,4.16667,0,0)"
       id="g28">
      <g
         transform="matrix(-1,0,0,1,209.781,156.178)"
         id="g27">
        <path
           d="M11.794,-48.835C12.269,-48.55 3.663,-39.49 3.066,-26.1C2.397,-11.074 12.24,-0.217 11.794,0.032C11.322,0.294 -0.475,-11.445 0.486,-26.674C1.318,-39.86 11.302,-49.129 11.794,-48.835"
           style="fill:rgb(238,237,237);fill-rule:nonzero;"
           id="path26" />
      </g>
    </g>
    <g
       transform="matrix(4.16667,0,0,4.16667,0,0)"
       id="g30">
      <g
         transform="matrix(-1,0,0,1,116.77,155.949)"
         id="g29">
        <path
           d="M-11.794,-48.835C-12.269,-48.551 -3.663,-39.491 -3.066,-26.1C-2.397,-11.075 -12.24,-0.216 -11.794,0.032C-11.322,0.294 0.475,-11.446 -0.486,-26.675C-1.319,-39.86 -11.302,-49.129 -11.794,-48.835"
           style="fill:rgb(238,237,237);fill-rule:nonzero;"
           id="path28" />
      </g>
    </g>
  </g>
</svg>
